<svg xmlns="http://www.w3.org/2000/svg" viewBox="0 0 64 64"><g id="Layer_31" data-name="Layer 31"><path d="M27,38l-3.55,8.875A1.789,1.789,0,0,1,21.789,48h0A1.789,1.789,0,0,1,20,46.211V38H16V48a4,4,0,0,0,4,4h3.181a4,4,0,0,0,3.767-2.655L31,38Z" style="fill:#7a838b"/><path d="M19,34,11.957,14.633A4,4,0,0,0,8.2,12H3a2,2,0,0,0-2,2H1a2,2,0,0,0,2,2H5.2a4,4,0,0,1,3.759,2.633L16,38H61a2,2,0,0,0,2-2h0a2,2,0,0,0-2-2Z" style="fill:#7a838b"/><polygon points="26.2 40 30.286 40 31 38 27 38 26.2 40" style="fill:#5d6972"/><rect x="16" y="38" width="4" height="2" style="fill:#5d6972"/><rect x="53" y="18" width="4" height="16" style="fill:#7a838b"/><rect x="53" y="32" width="4" height="2" style="fill:#5d6972"/><polygon points="19 34 44 34 58 18 17 18 19 34" style="fill:#e6e6e6"/><rect x="15" y="14" width="46" height="4" rx="2" style="fill:#7a838b"/><path d="M18,16a2,2,0,0,1,2-2H17a2,2,0,0,0,0,4h3A2,2,0,0,1,18,16Z" style="fill:#5d6972"/><path d="M58,18H17l.25,2L19,34H44l2.629-3H32.589A12,12,0,0,1,20.681,20.484L20.621,20H56.25Z" style="fill:#cecece"/><path d="M41.518,38H56.482a9,9,0,0,0-14.964,0Z" style="fill:#5d6972"/><circle cx="52" cy="43" r="9" style="fill:#7a838b"/><path d="M55,49a8.986,8.986,0,0,1-7.678-13.678A8.993,8.993,0,1,0,59.678,47.678,8.944,8.944,0,0,1,55,49Z" style="fill:#5d6972"/><circle cx="52" cy="43" r="5" style="fill:#e6e6e6"/><path d="M59,17H57a1,1,0,0,1,0-2h2a1,1,0,0,1,0,2Z" style="fill:#fff"/></g></svg>