<svg xmlns="http://www.w3.org/2000/svg" viewBox="0 0 64 64"><g id="Layer_31" data-name="Layer 31"><path d="M34,19.643a2.6,2.6,0,0,1,2.242-2.63A2.5,2.5,0,0,1,39,19.5V15.643a2.6,2.6,0,0,1,2.242-2.63A2.5,2.5,0,0,1,44,15.5V11.643a2.6,2.6,0,0,1,2.242-2.63A2.5,2.5,0,0,1,49,11.5v6a2.5,2.5,0,0,1,2.758-2.487A2.6,2.6,0,0,1,54,17.643V29.586a1,1,0,0,0,1.707.707l1.406-1.406a3.183,3.183,0,0,1,4.5,0h0a3.183,3.183,0,0,1,0,4.5l-7.27,7.27A8,8,0,0,0,52,46.314V53a2,2,0,0,1-2,2H38a2,2,0,0,1-2-2V43.878a7.972,7.972,0,0,0-.191-1.735l-1.428-6.428A16.022,16.022,0,0,1,34,32.244Z" style="fill:#f8c460"/><path d="M50.122,52A11.121,11.121,0,0,1,39,40.878h0a7.966,7.966,0,0,0-.191-1.735l-1.428-6.428A16.022,16.022,0,0,1,37,29.244V17.064a2.144,2.144,0,0,0-1.636.249A2.93,2.93,0,0,0,34,19.849v12.4a16.022,16.022,0,0,0,.381,3.471l1.428,6.428A7.966,7.966,0,0,1,36,43.878V53a2,2,0,0,0,2,2H50a2,2,0,0,0,2-2V52Z" style="fill:#faaf42"/><rect x="34" y="45" width="20" height="6" rx="2" style="fill:#e6e6e6"/><path d="M39,48a2,2,0,0,1-2-2V45H36a2,2,0,0,0-2,2v2a2,2,0,0,0,2,2H52a2,2,0,0,0,2-2V48Z" style="fill:#cecece"/><path d="M36,45h9.5A2.5,2.5,0,0,1,48,47.5v1A2.5,2.5,0,0,1,45.5,51H36a2,2,0,0,1-2-2V47a2,2,0,0,1,2-2Z" style="fill:#7a838b"/><path d="M36.5,17h0A2.5,2.5,0,0,1,39,19.5V23a0,0,0,0,1,0,0H34a0,0,0,0,1,0,0V19.5A2.5,2.5,0,0,1,36.5,17Z" style="fill:#7a838b"/><path d="M38,17.511A2.489,2.489,0,0,0,34,19.5V23h3V19.5A2.489,2.489,0,0,1,38,17.511Z" style="fill:#5d6972"/><path d="M41.5,13h0A2.5,2.5,0,0,1,44,15.5V19a0,0,0,0,1,0,0H39a0,0,0,0,1,0,0V15.5A2.5,2.5,0,0,1,41.5,13Z" style="fill:#7a838b"/><path d="M46.5,9h0A2.5,2.5,0,0,1,49,11.5V15a0,0,0,0,1,0,0H44a0,0,0,0,1,0,0V11.5A2.5,2.5,0,0,1,46.5,9Z" style="fill:#7a838b"/><path d="M51.5,15h0A2.5,2.5,0,0,1,54,17.5V21a0,0,0,0,1,0,0H49a0,0,0,0,1,0,0V17.5A2.5,2.5,0,0,1,51.5,15Z" style="fill:#7a838b"/><path d="M61.613,28.887a3.183,3.183,0,0,0-4.5,0l-1.406,1.406a1,1,0,0,1-.239.175L60,35l1.613-1.613A3.183,3.183,0,0,0,61.613,28.887Z" style="fill:#7a838b"/><path d="M46.662,42H42.338A4,4,0,0,1,38.4,38.716l-.974-5.358A2,2,0,0,1,39.4,31H49.6a2,2,0,0,1,1.967,2.358L50.6,38.716A4,4,0,0,1,46.662,42Z" style="fill:#7a838b"/><path d="M30,19.643a2.6,2.6,0,0,0-2.242-2.63A2.5,2.5,0,0,0,25,19.5V15.643a2.6,2.6,0,0,0-2.242-2.63A2.5,2.5,0,0,0,20,15.5V11.643a2.6,2.6,0,0,0-2.242-2.63A2.5,2.5,0,0,0,15,11.5v6a2.5,2.5,0,0,0-2.758-2.487A2.6,2.6,0,0,0,10,17.643V29.586a1,1,0,0,1-1.707.707L6.887,28.887a3.183,3.183,0,0,0-4.5,0h0a3.183,3.183,0,0,0,0,4.5l7.27,7.27A8,8,0,0,1,12,46.314V53a2,2,0,0,0,2,2H26a2,2,0,0,0,2-2V43.878a7.972,7.972,0,0,1,.191-1.735l1.428-6.428A16.022,16.022,0,0,0,30,32.244Z" style="fill:#f8c460"/><path d="M23,52a8,8,0,0,1-8-8v-.686a8,8,0,0,0-2.343-5.657l-7.27-7.27a3.162,3.162,0,0,1-.916-2.416,3.16,3.16,0,0,0-1.976.814A3.328,3.328,0,0,0,2.53,33.53l7.127,7.127A8,8,0,0,1,12,46.314V53a2,2,0,0,0,2,2H26a2,2,0,0,0,2-2V52Z" style="fill:#faaf42"/><rect x="10" y="45" width="20" height="6" rx="2" transform="translate(40 96) rotate(-180)" style="fill:#e6e6e6"/><path d="M39,48a2,2,0,0,1-2-2V45H36a2,2,0,0,0-2,2v2a2,2,0,0,0,2,2H46a2,2,0,0,0,2-2V48Z" style="fill:#5d6972"/><path d="M15,48a2,2,0,0,1-2-2V45H12a2,2,0,0,0-2,2v2a2,2,0,0,0,2,2H28a2,2,0,0,0,2-2V48Z" style="fill:#cecece"/><path d="M18,45h9.5A2.5,2.5,0,0,1,30,47.5v1A2.5,2.5,0,0,1,27.5,51H18a2,2,0,0,1-2-2V47A2,2,0,0,1,18,45Z" transform="translate(46 96) rotate(-180)" style="fill:#7a838b"/><path d="M21.5,48A2.5,2.5,0,0,1,19,45.5V45h-.5A2.5,2.5,0,0,0,16,47.5v1A2.5,2.5,0,0,0,18.5,51H28a2,2,0,0,0,2-2V48Z" style="fill:#5d6972"/><path d="M25,17h5a0,0,0,0,1,0,0v3.5A2.5,2.5,0,0,1,27.5,23h0A2.5,2.5,0,0,1,25,20.5V17A0,0,0,0,1,25,17Z" transform="translate(55 40) rotate(-180)" style="fill:#7a838b"/><path d="M20,13h5a0,0,0,0,1,0,0v3.5A2.5,2.5,0,0,1,22.5,19h0A2.5,2.5,0,0,1,20,16.5V13a0,0,0,0,1,0,0Z" transform="translate(45 32) rotate(-180)" style="fill:#7a838b"/><path d="M15,9h5a0,0,0,0,1,0,0v3.5A2.5,2.5,0,0,1,17.5,15h0A2.5,2.5,0,0,1,15,12.5V9A0,0,0,0,1,15,9Z" transform="translate(35 24) rotate(-180)" style="fill:#7a838b"/><path d="M10,15h5a0,0,0,0,1,0,0v3.5A2.5,2.5,0,0,1,12.5,21h0A2.5,2.5,0,0,1,10,18.5V15a0,0,0,0,1,0,0Z" transform="translate(25 36) rotate(-180)" style="fill:#7a838b"/><path d="M2.387,28.887a3.183,3.183,0,0,1,4.5,0l1.406,1.406a1,1,0,0,0,.239.175L4,35,2.387,33.387A3.183,3.183,0,0,1,2.387,28.887Z" style="fill:#7a838b"/><path d="M6.887,28.887a3.177,3.177,0,0,0-.426-.348l-.848.848a2.281,2.281,0,0,1-3.226,0h0a3.009,3.009,0,0,1-.2-.25,3.171,3.171,0,0,0,.2,4.25L4,35l4.532-4.532a1,1,0,0,1-.239-.175Z" style="fill:#5d6972"/><path d="M17.338,42h4.324A4,4,0,0,0,25.6,38.716l.974-5.358A2,2,0,0,0,24.6,31H14.4a2,2,0,0,0-1.967,2.358l.974,5.358A4,4,0,0,0,17.338,42Z" style="fill:#7a838b"/><path d="M28,27a1,1,0,0,1-1-1V25a1,1,0,0,1,2,0v1A1,1,0,0,1,28,27Z" style="fill:#fff"/><path d="M52,25a1,1,0,0,1-1-1V23a1,1,0,0,1,2,0v1A1,1,0,0,1,52,25Z" style="fill:#fff"/><path d="M16,23a1,1,0,0,1-1-1V16a1,1,0,0,1,2,0v6A1,1,0,0,1,16,23Z" style="fill:#faaf42"/><path d="M45,23a1,1,0,0,1-1-1V16a1,1,0,0,1,2,0v6A1,1,0,0,1,45,23Z" style="fill:#faaf42"/><path d="M21,25a1,1,0,0,1-1-1V20a1,1,0,0,1,2,0v4A1,1,0,0,1,21,25Z" style="fill:#faaf42"/><path d="M26,29a1,1,0,0,1-1-1V24a1,1,0,0,1,2,0v4A1,1,0,0,1,26,29Z" style="fill:#faaf42"/><path d="M40,25a1,1,0,0,1-1-1V20a1,1,0,0,1,2,0v4A1,1,0,0,1,40,25Z" style="fill:#faaf42"/><path d="M50,27a1,1,0,0,1-1-1V22a1,1,0,0,1,2,0v4A1,1,0,0,1,50,27Z" style="fill:#faaf42"/><path d="M11,27a1,1,0,0,1-1-1V22a1,1,0,0,1,2,0v4A1,1,0,0,1,11,27Z" style="fill:#faaf42"/></g></svg>