<svg xmlns="http://www.w3.org/2000/svg" viewBox="0 0 64 64"><g id="Layer_31" data-name="Layer 31"><path d="M4.621,18.515l-3.5,14.007a4.019,4.019,0,0,0-.119.97V45a2,2,0,0,0,2,2H17V19a2,2,0,0,0-2-2H6.562A2,2,0,0,0,4.621,18.515Z" style="fill:#f8c460"/><path d="M16,44A12,12,0,0,1,4,32V30.493a4.021,4.021,0,0,1,.119-.971L7.25,17H6.562a2,2,0,0,0-1.941,1.515l-3.5,14.007A4.021,4.021,0,0,0,1,33.493V45a2,2,0,0,0,2,2H17V44Z" style="fill:#faaf42"/><path d="M13,23v2.636a4,4,0,0,1-3.315,3.94L1.5,31,4,21h7A2,2,0,0,1,13,23Z" style="fill:#a7d0e1"/><path d="M1.5,31,4,30.565v-.072a4.021,4.021,0,0,1,.119-.971L6.25,21H4Z" style="fill:#80bbce"/><path d="M17,41H63a0,0,0,0,1,0,0v4a2,2,0,0,1-2,2H17a0,0,0,0,1,0,0V41A0,0,0,0,1,17,41Z" style="fill:#e6e6e6"/><path d="M20,41H17v6H61a2,2,0,0,0,2-2V44H23A3,3,0,0,1,20,41Z" style="fill:#cecece"/><path d="M26.621,17.485l-1.242-4.97A2,2,0,0,0,23.438,11H15v3h6V37H63V19H28.562A2,2,0,0,1,26.621,17.485Z" style="fill:#f8c460"/><path d="M32,34a8,8,0,0,1-8-8V11.086A2.017,2.017,0,0,0,23.438,11H15v3h6V37H63V34Z" style="fill:#faaf42"/><rect x="17" y="37" width="44" height="4" style="fill:#7a838b"/><rect x="17" y="37" width="44" height="2" style="fill:#5d6972"/><rect x="25" y="23" width="4" height="10" style="fill:#e6e6e6"/><path d="M27,23H25v2h0a2,2,0,0,1,2,2v6h2V23Z" style="fill:#cecece"/><rect x="35" y="23" width="4" height="10" style="fill:#e6e6e6"/><path d="M37,23H35v2h0a2,2,0,0,1,2,2v6h2V23Z" style="fill:#cecece"/><rect x="45" y="23" width="4" height="10" style="fill:#e6e6e6"/><path d="M47,23H45v2h0a2,2,0,0,1,2,2v6h2V23Z" style="fill:#cecece"/><rect x="55" y="23" width="4" height="10" style="fill:#e6e6e6"/><path d="M57,23H55v2h0a2,2,0,0,1,2,2v6h2V23Z" style="fill:#cecece"/><circle cx="13" cy="47" r="6" style="fill:#7a838b"/><path d="M16,50a5.993,5.993,0,0,1-5.466-8.466,6,6,0,1,0,7.932,7.932A5.974,5.974,0,0,1,16,50Z" style="fill:#5d6972"/><circle cx="13" cy="47" r="2" style="fill:#e6e6e6"/><circle cx="53" cy="47" r="6" style="fill:#7a838b"/><circle cx="37" cy="47" r="6" style="fill:#7a838b"/><path d="M40,50a5.993,5.993,0,0,1-5.466-8.466,6,6,0,1,0,7.932,7.932A5.974,5.974,0,0,1,40,50Z" style="fill:#5d6972"/><path d="M56,50a5.993,5.993,0,0,1-5.466-8.466,6,6,0,1,0,7.932,7.932A5.974,5.974,0,0,1,56,50Z" style="fill:#5d6972"/><circle cx="37" cy="47" r="2" style="fill:#e6e6e6"/><circle cx="53" cy="47" r="2" style="fill:#e6e6e6"/><path d="M11,34h2a1,1,0,0,0,0-2H11a1,1,0,0,0,0,2Z" style="fill:#7a838b"/><path d="M59,22H57a1,1,0,0,1,0-2h2a1,1,0,0,1,0,2Z" style="fill:#fff"/><path d="M11,24H9a1,1,0,0,1,0-2h2a1,1,0,0,1,0,2Z" style="fill:#fff"/></g></svg>