<svg xmlns="http://www.w3.org/2000/svg" viewBox="0 0 64 64"><g id="Layer_31" data-name="Layer 31"><path d="M55,57v6H9V57A12,12,0,0,1,21,45h8a3,3,0,0,0,6,0h8A12,12,0,0,1,55,57Z" style="fill:#7a838b"/><path d="M18,60a6,6,0,0,1-6-6h0a11.937,11.937,0,0,1,2.152-6.848A11.976,11.976,0,0,0,9,57v6H55V60Z" style="fill:#5d6972"/><path d="M47,45.69V63H17V45.69A11.8,11.8,0,0,1,21,45h4l7,10,7-10h4A11.8,11.8,0,0,1,47,45.69Z" style="fill:#f8c460"/><path d="M18,60a6,6,0,0,1-1-.09V63H47V60Z" style="fill:#faaf42"/><rect x="17" y="55" width="30" height="4" style="fill:#e6e6e6"/><path d="M29,37v8a3,3,0,0,0,6,0V37Z" style="fill:#ffd3b6"/><path d="M21,15H43a0,0,0,0,1,0,0V28A11,11,0,0,1,32,39h0A11,11,0,0,1,21,28V15a0,0,0,0,1,0,0Z" style="fill:#ffd3b6"/><path d="M29,40.575a10.8,10.8,0,0,0,6,0V37H29Z" style="fill:#f9b995"/><path d="M31,3h2A12,12,0,0,1,45,15v2a0,0,0,0,1,0,0H19a0,0,0,0,1,0,0V15A12,12,0,0,1,31,3Z" style="fill:#f8c460"/><path d="M33.5,3.025C33.333,3.018,33.169,3,33,3H31A12,12,0,0,0,19,15v2h3V15A11.99,11.99,0,0,1,33.5,3.025Z" style="fill:#faaf42"/><path d="M20,19h1a0,0,0,0,1,0,0v6a0,0,0,0,1,0,0H20a3,3,0,0,1-3-3v0A3,3,0,0,1,20,19Z" style="fill:#f9b995"/><path d="M46,19h1a0,0,0,0,1,0,0v6a0,0,0,0,1,0,0H46a3,3,0,0,1-3-3v0A3,3,0,0,1,46,19Z" transform="translate(90 44) rotate(180)" style="fill:#ffd3b6"/><path d="M32,1h0a3,3,0,0,1,3,3V19a0,0,0,0,1,0,0H29a0,0,0,0,1,0,0V4a3,3,0,0,1,3-3Z" style="fill:#f8c460"/><path d="M32,11V1a3,3,0,0,0-3,3V19h6V13H34A2,2,0,0,1,32,11Z" style="fill:#faaf42"/><path d="M43,21V17H24V15H21V27.652A11.229,11.229,0,0,0,31.6,38.993a10.987,10.987,0,0,0,9.532-4.861,10.973,10.973,0,0,1-7.283,1.809A11.172,11.172,0,0,1,24,24.735V23a2,2,0,0,1,2-2Z" style="fill:#f9b995"/><rect x="17" y="15" width="30" height="4" rx="2" style="fill:#f8c460"/><path d="M45,21a1.984,1.984,0,0,0,1.488-.676A3,3,0,0,0,44,19H43v2Z" style="fill:#f9b995"/><path d="M20,17a2,2,0,0,1,2-2H19a2,2,0,0,0,0,4h3A2,2,0,0,1,20,17Z" style="fill:#faaf42"/><path d="M27,23a1,1,0,0,0-1,1v1a1,1,0,0,0,2,0V24A1,1,0,0,0,27,23Z" style="fill:#7a838b"/><path d="M37,26a1,1,0,0,0,1-1V24a1,1,0,0,0-2,0v1A1,1,0,0,0,37,26Z" style="fill:#7a838b"/><path d="M39,8.005a1,1,0,0,1-.6-.2,9.033,9.033,0,0,0-1.8-1.053,1,1,0,0,1,.8-1.832,11.052,11.052,0,0,1,2.2,1.287,1,1,0,0,1-.6,1.8Z" style="fill:#fff"/></g></svg>